<?xml version="1.0" encoding="UTF-8"?>
<svg width="820" height="300" version="1.1" viewBox="-1 0 40 15" xmlns="http://www.w3.org/2000/svg">
    <path d="m-1 3 h 40" stroke-width="0.125" stroke="#000000" />
    <path d="m-1 9 h 40" stroke-width="0.125" stroke="#000000" />

    <!-- H on the first qubit -->
    <rect x="2.5" y="1" width="5" height="4" stroke-width="0.125" stroke="#000000" fill="#ffffff" />
    <path d="m6.226 1.872c0-.037-.031-.037-.048-.037c-.119 0-.246.007-.369.007c-.126 0-.256-.007-.379-.007c-.027 0-.065 0-.065.065c0 .034.024.034.089.034c.085 0 .181 0 .181.055c0 .021 0 .031-.007.051l-.215.863h-.938l.204-.826c.031-.116.051-.143.263-.143c.058 0 .089 0 .089-.061c0-.037-.031-.037-.048-.037c-.119 0-.246.007-.369.007c-.126 0-.256-.007-.379-.007c-.027 0-.065 0-.065.065c0 .034.024.034.089.034c.085 0 .181 0 .181.055c0 .021 0 .031-.007.051l-.467 1.879c-.031.119-.051.147-.259.147c-.061 0-.092 0-.092.065c0 .034.034.034.048.034c.119 0 .246-.007.369-.007c.123 0 .256.007.376.007c.027 0 .065 0 .065-.065c0-.034-.027-.034-.079-.034c-.191 0-.191-.027-.191-.058l.007-.051.242-.956h.937l-.228.918c-.031.119-.051.147-.259.147c-.061 0-.092 0-.092.065c0 .034.034.034.048.034c.119 0 .246-.007.369-.007c.123 0 .256.007.376.007c.027 0 .065 0 .065-.065c0-.034-.027-.034-.079-.034c-.191 0-.191-.027-.191-.058c0-.027.003-.044.007-.051l.469-1.881c.031-.116.051-.143.263-.143c.058 0 .089 0 .089-.061z" />
    
    <!-- T on the second qubit -->
    <rect x="2.5" y="7" width="5" height="4" stroke-width="0.125" stroke="#000000" fill="#ffffff" />
    <path d="m6.001 8.563.103-.618c.007-.034.007-.041.007-.041c0-.038-.024-.038-.082-.038h-1.713c-.072 0-.079 0-.096.055l-.209.629c-.003.01-.01.034-.01.044c0 .034.034.034.044.034c.034 0 .038-.003.065-.072c.171-.508.246-.59.71-.59h.116c.079 0 .079.014.079.038c0 .02-.01.065-.014.072l-.461 1.846c-.03.126-.058.16-.348.16h-.041c-.061 0-.092 0-.092.065c0 .034.031.034.058.034l.485-.007.495.007c.034 0 .072 0 .072-.061c0-.038-.024-.038-.082-.038h-.041c-.058 0-.113-.003-.167-.01c-.065-.007-.099-.01-.099-.065c0-.017 0-.024.007-.058l.463-1.857c.024-.096.044-.113.072-.119c.024-.007.123-.007.184-.007c.297 0 .437.02.437.256c0 .102-.027.276-.038.331l-.007.038c0 .038.034.038.048.038c.041 0 .044-.01.055-.065z"/>

    <!-- CNOT controlled by the first qubit -->
    <circle cy="3" cx="15" r="0.6" />
    <path d="m15 3 v 7.2" stroke-width="0.125" stroke="#000000" />
    <circle cy="9" cx="15" r="1.2" stroke-width="0.125" stroke="#000000" fill="none" />

    <!-- CNOT controlled by the second qubit -->
    <circle cy="9" cx="24" r="0.6" />
    <path d="m24 9 v -7.2" stroke-width="0.125" stroke="#000000" />
    <circle cy="3" cx="24" r="1.2" stroke-width="0.125" stroke="#000000" fill="none" />
    
    <!-- T on the first qubit -->
    <rect x="31.5" y="1" width="5" height="4" stroke-width="0.125" stroke="#000000" fill="#ffffff" />
    <path d="m35.001 2.563.103-.618c.007-.034.007-.041.007-.041c0-.038-.024-.038-.082-.038h-1.713c-.072 0-.079 0-.096.055l-.209.629c-.003.01-.01.034-.01.044c0 .034.034.034.044.034c.034 0 .038-.003.065-.072c.171-.508.246-.59.71-.59h.116c.079 0 .079.014.079.038c0 .02-.01.065-.014.072l-.461 1.846c-.03.126-.058.16-.348.16h-.041c-.061 0-.092 0-.092.065c0 .034.031.034.058.034l.485-.007.495.007c.034 0 .072 0 .072-.061c0-.038-.024-.038-.082-.038h-.041c-.058 0-.113-.003-.167-.01c-.065-.007-.099-.01-.099-.065c0-.017 0-.024.007-.058l.463-1.857c.024-.096.044-.113.072-.119c.024-.007.123-.007.184-.007c.297 0 .437.02.437.256c0 .102-.027.276-.038.331l-.007.038c0 .038.034.038.048.038c.041 0 .044-.01.055-.065z"/>

    <!-- H on the second qubit -->
    <rect x="31.5" y="7" width="5" height="4" stroke-width="0.125" stroke="#000000" fill="#ffffff" />
    <path d="m35.226 7.872c0-.037-.031-.037-.048-.037c-.119 0-.246.007-.369.007c-.126 0-.256-.007-.379-.007c-.027 0-.065 0-.065.065c0 .034.024.034.089.034c.085 0 .181 0 .181.055c0 .021 0 .031-.007.051l-.215.863h-.938l.204-.826c.031-.116.051-.143.263-.143c.058 0 .089 0 .089-.061c0-.037-.031-.037-.048-.037c-.119 0-.246.007-.369.007c-.126 0-.256-.007-.379-.007c-.027 0-.065 0-.065.065c0 .034.024.034.089.034c.085 0 .181 0 .181.055c0 .021 0 .031-.007.051l-.467 1.879c-.031.119-.051.147-.259.147c-.061 0-.092 0-.092.065c0 .034.034.034.048.034c.119 0 .246-.007.369-.007c.123 0 .256.007.376.007c.027 0 .065 0 .065-.065c0-.034-.027-.034-.079-.034c-.191 0-.191-.027-.191-.058l.007-.051.242-.956h.937l-.228.918c-.031.119-.051.147-.259.147c-.061 0-.092 0-.092.065c0 .034.034.034.048.034c.119 0 .246-.007.369-.007c.123 0 .256.007.376.007c.027 0 .065 0 .065-.065c0-.034-.027-.034-.079-.034c-.191 0-.191-.027-.191-.058c0-.027.003-.044.007-.051l.469-1.881c.031-.116.051-.143.263-.143c.058 0 .089 0 .089-.061z" />
</svg>